HIERARCHY
ROOT mixamorig:Hips
{
	OFFSET 0.000000 104.274902 0.000000
	CHANNELS 6 Xposition Yposition Zposition Xrotation Yrotation Zrotation
	JOINT mixamorig:Spine
	{
		OFFSET 0.000000 10.181549 0.131524
		CHANNELS 6 Xposition Yposition Zposition Xrotation Yrotation Zrotation
		JOINT mixamorig:Spine1
		{
			OFFSET 0.000000 9.893990 -1.470706
			CHANNELS 3 Xrotation Yrotation Zrotation
			JOINT mixamorig:Spine2
			{
				OFFSET 0.000000 9.220787 -1.370637
				CHANNELS 3 Xrotation Yrotation Zrotation
				JOINT mixamorig:Neck
				{
					OFFSET 0.000000 16.740372 -2.049022
					CHANNELS 6 Xposition Yposition Zposition Xrotation Yrotation Zrotation
					JOINT mixamorig:Head
					{
						OFFSET 0.000000 9.617859 1.684976
						CHANNELS 6 Xposition Yposition Zposition Xrotation Yrotation Zrotation
						JOINT mixamorig:HeadTop_End
						{
							OFFSET 0.000000 22.037384 7.501072
							CHANNELS 6 Xposition Yposition Zposition Xrotation Yrotation Zrotation
							End Site
							{
								OFFSET 0.000000 23.106567 -2.828246
							}
						}
					}
				}
				JOINT mixamorig:RightShoulder
				{
					OFFSET -4.570000 11.014877 -2.160840
					CHANNELS 6 Xposition Yposition Zposition Xrotation Yrotation Zrotation
					JOINT mixamorig:RightArm
					{
						OFFSET -10.592867 -0.524796 -2.232105
						CHANNELS 3 Xrotation Yrotation Zrotation
						JOINT mixamorig:RightForeArm
						{
							OFFSET -27.841497 0.000000 -0.000002
							CHANNELS 3 Xrotation Yrotation Zrotation
							JOINT mixamorig:RightHand
							{
								OFFSET -28.328812 0.000000 -0.000001
								CHANNELS 3 Xrotation Yrotation Zrotation
								JOINT mixamorig:RightHandThumb1
								{
									OFFSET -2.464798 -1.573990 2.681911
									CHANNELS 6 Xposition Yposition Zposition Xrotation Yrotation Zrotation
									JOINT mixamorig:RightHandThumb2
									{
										OFFSET -3.244781 -1.873383 1.873376
										CHANNELS 3 Xrotation Yrotation Zrotation
										JOINT mixamorig:RightHandThumb3
										{
											OFFSET -2.646263 -1.527817 1.527818
											CHANNELS 6 Xposition Yposition Zposition Xrotation Yrotation Zrotation
											JOINT mixamorig:RightHandThumb4
											{
												OFFSET -1.994591 -1.151581 1.151575
												CHANNELS 6 Xposition Yposition Zposition Xrotation Yrotation Zrotation
												End Site
												{
													OFFSET -1.860176 -1.142715 1.365483
												}
											}
										}
									}
								}
								JOINT mixamorig:RightHandIndex1
								{
									OFFSET -9.108299 -0.517883 2.259803
									CHANNELS 6 Xposition Yposition Zposition Xrotation Yrotation Zrotation
									JOINT mixamorig:RightHandIndex2
									{
										OFFSET -3.699997 0.000000 0.000000
										CHANNELS 3 Xrotation Yrotation Zrotation
										JOINT mixamorig:RightHandIndex3
										{
											OFFSET -2.850006 0.000000 0.000000
											CHANNELS 3 Xrotation Yrotation Zrotation
											JOINT mixamorig:RightHandIndex4
											{
												OFFSET -2.772194 0.000000 0.000000
												CHANNELS 3 Xrotation Yrotation Zrotation
												End Site
												{
													OFFSET -2.772202 0.000000 -0.000484
												}
											}
										}
									}
								}
								JOINT mixamorig:RightHandMiddle1
								{
									OFFSET -9.532501 0.000000 -0.000000
									CHANNELS 6 Xposition Yposition Zposition Xrotation Yrotation Zrotation
									JOINT mixamorig:RightHandMiddle2
									{
										OFFSET -3.699997 0.000000 0.000000
										CHANNELS 3 Xrotation Yrotation Zrotation
										JOINT mixamorig:RightHandMiddle3
										{
											OFFSET -2.949997 0.000000 0.000000
											CHANNELS 3 Xrotation Yrotation Zrotation
											JOINT mixamorig:RightHandMiddle4
											{
												OFFSET -2.946594 0.000000 0.000000
												CHANNELS 3 Xrotation Yrotation Zrotation
												End Site
												{
													OFFSET -2.946602 0.000000 -0.000982
												}
											}
										}
									}
								}
								JOINT mixamorig:RightHandRing1
								{
									OFFSET -9.103600 -0.043106 -1.865100
									CHANNELS 6 Xposition Yposition Zposition Xrotation Yrotation Zrotation
									JOINT mixamorig:RightHandRing2
									{
										OFFSET -3.379303 0.000000 0.000000
										CHANNELS 3 Xrotation Yrotation Zrotation
										JOINT mixamorig:RightHandRing3
										{
											OFFSET -2.889694 0.000000 0.000000
											CHANNELS 3 Xrotation Yrotation Zrotation
											JOINT mixamorig:RightHandRing4
											{
												OFFSET -2.638802 0.000000 0.000000
												CHANNELS 3 Xrotation Yrotation Zrotation
												End Site
												{
													OFFSET -2.638802 0.000000 0.004218
												}
											}
										}
									}
								}
								JOINT mixamorig:RightHandPinky1
								{
									OFFSET -8.076698 -0.486725 -3.806299
									CHANNELS 6 Xposition Yposition Zposition Xrotation Yrotation Zrotation
									JOINT mixamorig:RightHandPinky2
									{
										OFFSET -3.600006 0.000000 0.000000
										CHANNELS 3 Xrotation Yrotation Zrotation
										JOINT mixamorig:RightHandPinky3
										{
											OFFSET -2.099998 0.000000 0.000000
											CHANNELS 3 Xrotation Yrotation Zrotation
											JOINT mixamorig:RightHandPinky4
											{
												OFFSET -2.115791 0.000000 0.000000
												CHANNELS 3 Xrotation Yrotation Zrotation
												End Site
												{
													OFFSET -2.115799 0.000000 0.000174
												}
											}
										}
									}
								}
							}
						}
					}
				}
				JOINT mixamorig:LeftShoulder
				{
					OFFSET 4.570400 11.014679 -2.160816
					CHANNELS 6 Xposition Yposition Zposition Xrotation Yrotation Zrotation
					JOINT mixamorig:LeftArm
					{
						OFFSET 10.592373 -0.524597 -2.232116
						CHANNELS 3 Xrotation Yrotation Zrotation
						JOINT mixamorig:LeftForeArm
						{
							OFFSET 27.841488 0.000000 0.000001
							CHANNELS 3 Xrotation Yrotation Zrotation
							JOINT mixamorig:LeftHand
							{
								OFFSET 28.328808 0.000000 -0.000000
								CHANNELS 3 Xrotation Yrotation Zrotation
								JOINT mixamorig:LeftHandThumb1
								{
									OFFSET 2.466103 -1.576202 2.681698
									CHANNELS 6 Xposition Yposition Zposition Xrotation Yrotation Zrotation
									JOINT mixamorig:LeftHandThumb2
									{
										OFFSET 3.243317 -1.872528 1.872530
										CHANNELS 3 Xrotation Yrotation Zrotation
										JOINT mixamorig:LeftHandThumb3
										{
											OFFSET 2.647881 -1.528763 1.528754
											CHANNELS 6 Xposition Yposition Zposition Xrotation Yrotation Zrotation
											JOINT mixamorig:LeftHandThumb4
											{
												OFFSET 1.998924 -1.154083 1.154080
												CHANNELS 6 Xposition Yposition Zposition Xrotation Yrotation Zrotation
												End Site
												{
													OFFSET 1.884041 -1.149155 1.337651
												}
											}
										}
									}
								}
								JOINT mixamorig:LeftHandIndex1
								{
									OFFSET 9.109299 -0.518005 2.259900
									CHANNELS 6 Xposition Yposition Zposition Xrotation Yrotation Zrotation
									JOINT mixamorig:LeftHandIndex2
									{
										OFFSET 3.699997 0.000000 0.000000
										CHANNELS 3 Xrotation Yrotation Zrotation
										JOINT mixamorig:LeftHandIndex3
										{
											OFFSET 2.850006 0.000000 0.000000
											CHANNELS 3 Xrotation Yrotation Zrotation
											JOINT mixamorig:LeftHandIndex4
											{
												OFFSET 2.774895 0.000000 0.000000
												CHANNELS 3 Xrotation Yrotation Zrotation
												End Site
												{
													OFFSET 2.774902 0.000000 -0.000072
												}
											}
										}
									}
								}
								JOINT mixamorig:LeftHandMiddle1
								{
									OFFSET 9.533401 0.000000 0.000000
									CHANNELS 6 Xposition Yposition Zposition Xrotation Yrotation Zrotation
									JOINT mixamorig:LeftHandMiddle2
									{
										OFFSET 3.699997 0.000000 0.000000
										CHANNELS 3 Xrotation Yrotation Zrotation
										JOINT mixamorig:LeftHandMiddle3
										{
											OFFSET 2.949997 0.000000 0.000000
											CHANNELS 3 Xrotation Yrotation Zrotation
											JOINT mixamorig:LeftHandMiddle4
											{
												OFFSET 2.952896 0.000000 0.000000
												CHANNELS 3 Xrotation Yrotation Zrotation
												End Site
												{
													OFFSET 2.952904 0.000000 0.000165
												}
											}
										}
									}
								}
								JOINT mixamorig:LeftHandRing1
								{
									OFFSET 9.104500 -0.042999 -1.865101
									CHANNELS 6 Xposition Yposition Zposition Xrotation Yrotation Zrotation
									JOINT mixamorig:LeftHandRing2
									{
										OFFSET 3.149994 0.000000 0.000000
										CHANNELS 3 Xrotation Yrotation Zrotation
										JOINT mixamorig:LeftHandRing3
										{
											OFFSET 2.950005 0.000000 0.000000
											CHANNELS 3 Xrotation Yrotation Zrotation
											JOINT mixamorig:LeftHandRing4
											{
												OFFSET 2.644302 0.000000 0.000000
												CHANNELS 3 Xrotation Yrotation Zrotation
												End Site
												{
													OFFSET 2.644302 0.000000 0.000083
												}
											}
										}
									}
								}
								JOINT mixamorig:LeftHandPinky1
								{
									OFFSET 8.077805 -0.486893 -3.806302
									CHANNELS 6 Xposition Yposition Zposition Xrotation Yrotation Zrotation
									JOINT mixamorig:LeftHandPinky2
									{
										OFFSET 3.600006 0.000000 0.000000
										CHANNELS 3 Xrotation Yrotation Zrotation
										JOINT mixamorig:LeftHandPinky3
										{
											OFFSET 2.099998 0.000000 0.000000
											CHANNELS 3 Xrotation Yrotation Zrotation
											JOINT mixamorig:LeftHandPinky4
											{
												OFFSET 2.125496 0.000000 0.000000
												CHANNELS 3 Xrotation Yrotation Zrotation
												End Site
												{
													OFFSET 2.125504 0.000000 -0.001254
												}
											}
										}
									}
								}
							}
						}
					}
				}
			}
		}
	}
	JOINT mixamorig:RightUpLeg
	{
		OFFSET -8.207800 -6.751701 -1.599544
		CHANNELS 6 Xposition Yposition Zposition Xrotation Yrotation Zrotation
		JOINT mixamorig:RightLeg
		{
			OFFSET 0.000004 -44.370152 0.345934
			CHANNELS 3 Xrotation Yrotation Zrotation
			JOINT mixamorig:RightFoot
			{
				OFFSET 0.000004 -44.423664 -3.043535
				CHANNELS 3 Xrotation Yrotation Zrotation
				JOINT mixamorig:RightToeBase
				{
					OFFSET 0.000001 -8.728691 10.710592
					CHANNELS 3 Xrotation Yrotation Zrotation
					JOINT mixamorig:RightToe_End
					{
						OFFSET 0.000000 -0.000665 9.278101
						CHANNELS 3 Xrotation Yrotation Zrotation
						End Site
						{
							OFFSET 0.000000 -0.000665 9.278103
						}
					}
				}
			}
		}
	}
	JOINT mixamorig:LeftUpLeg
	{
		OFFSET 8.207800 -6.751701 -1.599544
		CHANNELS 6 Xposition Yposition Zposition Xrotation Yrotation Zrotation
		JOINT mixamorig:LeftLeg
		{
			OFFSET 0.000004 -44.370037 0.346940
			CHANNELS 3 Xrotation Yrotation Zrotation
			JOINT mixamorig:LeftFoot
			{
				OFFSET 0.000004 -44.423611 -3.044388
				CHANNELS 3 Xrotation Yrotation Zrotation
				JOINT mixamorig:LeftToeBase
				{
					OFFSET 0.000001 -8.728690 10.710592
					CHANNELS 3 Xrotation Yrotation Zrotation
					JOINT mixamorig:LeftToe_End
					{
						OFFSET 0.000000 -0.000680 9.278101
						CHANNELS 3 Xrotation Yrotation Zrotation
						End Site
						{
							OFFSET 0.000000 -0.000680 9.278101
						}
					}
				}
			}
		}
	}
}
MOTION
Frames: 4
Frame Time: 0.033333
0.839470 90.889717 0.496616 5.811631 37.109767 -1.633513 -0.000000 10.181547 0.131525 7.539766 10.346348 0.702941 -0.368914 10.718781 -5.198489 13.645688 2.039982 -10.114783 -0.000000 16.740372 -2.049020 -7.443550 32.715281 0.295628 -0.000001 9.617839 1.684977 -2.925691 53.740321 11.676513 0.000003 22.037369 7.501071 -0.000000 0.000001 -0.000002 -4.569999 11.014870 -2.160839 -0.137091 7.362076 10.381746 -11.182072 6.937929 58.068076 0.000440 99.180501 -0.000369 -2.358468 12.745292 2.089891 -2.464797 -1.573994 2.681917 5.927445 -11.417200 6.651342 8.743354 -34.997660 -3.512830 -2.646269 -1.527810 1.527821 -2.745670 -39.674619 -21.662951 -1.994580 -1.151583 1.151577 0.000003 -0.000000 0.000002 -9.108319 -0.517893 2.259809 3.041851 -6.625181 69.021766 7.474813 -3.709592 127.260358 0.899518 -2.753237 36.180567 0.000001 -0.000002 0.000004 -9.532509 0.000013 0.000006 3.174550 -6.673424 70.760090 7.474817 -3.709584 127.260371 0.899523 -2.753226 36.180564 0.000000 -0.000002 0.000004 -9.103583 -0.043103 -1.865092 3.770570 -6.836832 78.373299 7.474822 -3.709604 127.260344 0.899532 -2.753233 36.180567 -0.000003 -0.000002 0.000001 -8.076705 -0.486717 -3.806300 4.462678 -6.925217 86.968491 7.474826 -3.709609 127.260344 0.899529 -2.753243 36.180567 0.000001 -0.000002 -0.000000 4.570402 11.014682 -2.160812 0.458047 0.543985 -5.747156 18.367854 18.226172 -57.612181 -0.000077 -93.057298 -0.000035 4.783207 -4.650500 17.676169 2.466114 -1.576202 2.681690 7.433706 13.303794 -6.108498 8.671859 33.130519 2.953484 2.647883 -1.528747 1.528753 -4.045061 33.447679 21.222941 1.998929 -1.154086 1.154083 0.000000 0.000004 0.000001 9.109294 -0.518015 2.259890 3.894135 7.840574 -69.728240 9.393973 4.659713 -127.313292 1.127995 3.457681 -36.128258 -0.000001 -0.000003 0.000000 9.533415 -0.000002 -0.000008 4.061923 7.899115 -71.470874 9.393976 4.659683 -127.313305 1.127980 3.457682 -36.128272 -0.000000 -0.000005 0.000001 9.104501 -0.043008 -1.865108 4.814924 8.094919 -79.104287 9.393978 4.659693 -127.313305 1.127986 3.457667 -36.128265 -0.000002 -0.000003 0.000000 8.077804 -0.486904 -3.806307 5.687849 8.194706 -87.724033 9.393978 4.659693 -127.313292 1.127997 3.457665 -36.128262 0.000003 -0.000000 -0.000000 -8.207796 -6.751700 -1.599543 -9.047392 -4.070001 12.571411 45.678676 -10.851026 -0.916342 -30.891740 -13.425770 -3.876681 -15.395019 -0.000018 -0.000004 0.000000 -0.000001 0.000000 8.207799 -6.751696 -1.599558 -46.224617 -12.766416 -5.449782 107.288209 -4.643057 0.253021 0.559418 -0.173188 6.115124 -9.568269 -0.000000 -0.000003 -0.000002 0.000002 -0.000001 
0.936653 92.337143 9.876028 6.214600 36.632968 1.072839 0.000002 10.181574 0.131523 9.340479 13.835581 -2.357575 -0.115533 11.523817 -5.607376 13.841277 2.730412 -10.704593 0.000003 16.740355 -2.049016 -7.252339 31.642333 -0.311142 -0.000001 9.617877 1.684973 -2.708795 49.073086 12.683178 0.000006 22.037369 7.501074 -0.000000 0.000000 -0.000001 -4.570003 11.014899 -2.160838 -0.174258 8.132395 6.951198 -19.615837 14.787797 65.581093 0.000352 101.530796 -0.000266 0.439430 14.464551 2.266698 -2.464799 -1.573997 2.681907 5.927446 -11.417196 6.651343 8.743353 -34.997660 -3.512834 -2.646265 -1.527822 1.527810 -2.745669 -39.674626 -21.662949 -1.994585 -1.151587 1.151574 0.000002 0.000000 -0.000006 -9.108304 -0.517881 2.259805 3.041854 -6.625186 69.021766 7.474816 -3.709595 127.260358 0.899516 -2.753235 36.180571 -0.000001 0.000001 0.000001 -9.532507 -0.000014 -0.000001 3.174553 -6.673424 70.760090 7.474820 -3.709582 127.260371 0.899520 -2.753224 36.180567 0.000001 0.000003 -0.000001 -9.103612 -0.043118 -1.865101 3.770569 -6.836832 78.373299 7.474820 -3.709606 127.260344 0.899531 -2.753238 36.180571 -0.000000 0.000001 -0.000001 -8.076701 -0.486720 -3.806294 4.462676 -6.925219 86.968498 7.474824 -3.709610 127.260344 0.899529 -2.753242 36.180567 0.000001 -0.000000 -0.000001 4.570402 11.014699 -2.160816 0.486559 -0.143145 -6.259764 18.059413 18.054743 -53.575147 0.000025 -98.061606 0.000017 8.995821 -2.742580 20.551809 2.466101 -1.576201 2.681701 7.433712 13.303798 -6.108490 8.671857 33.130519 2.953486 2.647890 -1.528753 1.528745 -4.045061 33.447675 21.222943 1.998922 -1.154083 1.154078 0.000003 -0.000001 -0.000002 9.109277 -0.518007 2.259900 3.894138 7.840574 -69.728240 9.393972 4.659709 -127.313292 1.127997 3.457685 -36.128262 -0.000001 -0.000000 0.000002 9.533417 -0.000001 0.000002 4.061929 7.899113 -71.470874 9.393978 4.659686 -127.313305 1.127980 3.457680 -36.128275 -0.000002 -0.000001 -0.000001 9.104502 -0.043006 -1.865099 4.814926 8.094917 -79.104287 9.393979 4.659697 -127.313305 1.127990 3.457668 -36.128262 -0.000000 0.000003 0.000001 8.077803 -0.486899 -3.806299 5.687849 8.194704 -87.724033 9.393978 4.659698 -127.313292 1.128001 3.457665 -36.128262 0.000001 0.000000 -0.000001 -8.207798 -6.751704 -1.599544 -0.214037 -8.131822 10.054058 37.000125 -8.798508 -0.460825 -21.262937 -9.469885 -1.180667 -22.473771 0.024927 -1.568487 0.000000 0.000001 -0.000000 8.207801 -6.751692 -1.599544 -48.567057 -4.648068 -10.954216 96.427211 -10.143730 0.068561 -0.624997 -1.892388 10.118134 -7.524018 -0.000000 -0.000003 -0.000004 0.000000 -0.000001 
1.213529 94.367668 19.593370 7.417141 37.227157 2.802532 -0.000001 10.181545 0.131525 10.300932 16.835216 -4.660480 -0.092331 12.205340 -5.868334 13.823625 3.327900 -11.137213 -0.000002 16.740368 -2.049030 -7.399653 30.548393 -0.698042 0.000005 9.617850 1.684966 -2.204136 44.620888 14.731624 -0.000003 22.037354 7.501070 0.000001 0.000001 -0.000001 -4.570000 11.014873 -2.160838 -0.134730 9.303360 2.715707 -28.055781 20.262492 70.890089 0.000314 102.148197 -0.000259 -0.498406 15.305633 2.902735 -2.464797 -1.573998 2.681905 5.927449 -11.417202 6.651336 8.743361 -34.997664 -3.512829 -2.646276 -1.527820 1.527810 -2.745666 -39.674622 -21.662951 -1.994571 -1.151586 1.151558 -0.000001 0.000001 0.000001 -9.108299 -0.517881 2.259799 3.041856 -6.625178 69.021773 7.474815 -3.709592 127.260358 0.899518 -2.753235 36.180567 -0.000002 0.000000 -0.000002 -9.532488 0.000005 -0.000005 3.174552 -6.673425 70.760097 7.474816 -3.709582 127.260371 0.899518 -2.753226 36.180560 -0.000000 -0.000001 -0.000000 -9.103595 -0.043106 -1.865104 3.770572 -6.836833 78.373299 7.474816 -3.709603 127.260344 0.899532 -2.753235 36.180571 -0.000004 0.000001 0.000001 -8.076703 -0.486725 -3.806299 4.462679 -6.925215 86.968498 7.474824 -3.709609 127.260344 0.899527 -2.753245 36.180564 -0.000002 -0.000001 -0.000000 4.570401 11.014682 -2.160818 0.494296 -0.636763 -6.041945 20.573310 12.743991 -49.944840 0.000001 -102.781766 0.000019 11.681164 -1.615265 22.297689 2.466103 -1.576188 2.681695 7.433705 13.303797 -6.108488 8.671858 33.130519 2.953486 2.647898 -1.528759 1.528743 -4.045063 33.447675 21.222938 1.998925 -1.154088 1.154080 0.000001 0.000002 -0.000000 9.109309 -0.518011 2.259893 3.894138 7.840574 -69.728240 9.393974 4.659710 -127.313278 1.127994 3.457683 -36.128269 0.000001 -0.000001 0.000002 9.533400 -0.000001 -0.000003 4.061927 7.899116 -71.470874 9.393976 4.659681 -127.313305 1.127981 3.457679 -36.128275 -0.000004 0.000001 0.000002 9.104514 -0.042998 -1.865106 4.814926 8.094919 -79.104287 9.393981 4.659698 -127.313305 1.127988 3.457665 -36.128265 -0.000001 -0.000004 0.000001 8.077803 -0.486889 -3.806306 5.687847 8.194704 -87.724033 9.393980 4.659696 -127.313292 1.128000 3.457668 -36.128265 -0.000000 0.000002 -0.000001 -8.207798 -6.751709 -1.599543 7.377173 -13.906034 8.506656 27.876305 -7.335437 -0.079774 -7.316067 -5.550495 4.140178 -27.273774 0.278407 -5.227701 0.000001 -0.000000 0.000000 8.207797 -6.751710 -1.599551 -47.697598 -0.138582 -17.420150 79.582243 -9.182974 0.253559 -3.881065 -0.204489 0.062149 -5.548372 -0.000001 -0.000001 0.000001 -0.000001 0.000002 
1.611616 96.367439 29.578398 9.060927 39.053744 2.811571 -0.000003 10.181540 0.131522 10.170373 18.879170 -5.696509 -0.313777 12.630337 -5.925507 13.584037 3.718554 -11.321559 0.000001 16.740387 -2.049024 -7.964699 29.652761 -0.737366 0.000012 9.617842 1.684981 -1.301994 40.988850 17.265854 -0.000006 22.037384 7.501074 0.000003 0.000004 -0.000002 -4.569999 11.014863 -2.160844 0.097871 10.793844 -1.129779 -33.198111 25.239989 71.393269 0.000368 102.092074 -0.000308 -4.908951 15.623117 4.483898 -2.464797 -1.573980 2.681939 5.927443 -11.417200 6.651342 8.743358 -34.997667 -3.512832 -2.646257 -1.527817 1.527829 -2.745658 -39.674626 -21.662954 -1.994587 -1.151583 1.151587 0.000003 0.000002 0.000005 -9.108302 -0.517889 2.259828 3.041850 -6.625185 69.021773 7.474817 -3.709595 127.260358 0.899515 -2.753238 36.180567 -0.000001 0.000000 -0.000000 -9.532515 0.000001 0.000020 3.174550 -6.673425 70.760097 7.474817 -3.709582 127.260371 0.899520 -2.753226 36.180564 0.000001 0.000000 0.000000 -9.103606 -0.043099 -1.865078 3.770568 -6.836831 78.373306 7.474820 -3.709605 127.260344 0.899539 -2.753233 36.180567 -0.000003 0.000000 0.000001 -8.076700 -0.486719 -3.806281 4.462675 -6.925217 86.968498 7.474826 -3.709609 127.260344 0.899531 -2.753244 36.180564 0.000000 -0.000000 -0.000001 4.570402 11.014707 -2.160817 0.481485 -0.696138 -4.921552 24.087150 5.308727 -47.715152 0.000023 -105.764127 0.000062 12.748421 -0.994935 23.624880 2.466098 -1.576202 2.681701 7.433710 13.303798 -6.108495 8.671858 33.130516 2.953485 2.647879 -1.528759 1.528754 -4.045066 33.447675 21.222941 1.998917 -1.154077 1.154084 0.000004 -0.000000 -0.000000 9.109295 -0.518023 2.259908 3.894138 7.840578 -69.728233 9.393974 4.659704 -127.313278 1.127999 3.457683 -36.128262 -0.000000 -0.000003 0.000000 9.533396 -0.000009 0.000005 4.061928 7.899120 -71.470874 9.393976 4.659683 -127.313305 1.127980 3.457677 -36.128269 0.000000 -0.000001 0.000001 9.104500 -0.043019 -1.865096 4.814927 8.094920 -79.104287 9.393978 4.659699 -127.313305 1.127987 3.457669 -36.128265 0.000000 0.000003 0.000001 8.077801 -0.486885 -3.806294 5.687850 8.194706 -87.724040 9.393978 4.659695 -127.313278 1.127999 3.457665 -36.128262 0.000000 -0.000001 0.000000 -8.207801 -6.751710 -1.599546 13.023263 -19.321920 9.395341 21.307156 -5.138420 0.029675 6.308229 -3.607703 12.570456 -23.635470 0.306836 -5.397609 0.000000 -0.000000 0.000001 8.207798 -6.751695 -1.599541 -44.136846 -0.312207 -22.770999 58.399811 -6.976982 0.510771 -4.484205 0.451126 -7.541669 -5.459168 0.000018 -0.000013 0.000000 0.000001 -0.000001 
